<?xml version="1.0" encoding="UTF-8" standalone="no"?>
<!DOCTYPE svg PUBLIC "-//W3C//DTD SVG 1.1//EN"
 "http://www.w3.org/Graphics/SVG/1.1/DTD/svg11.dtd">
<!-- Generated by graphviz version 5.0.1 (20220820.1526)
 -->
<!-- Pages: 1 -->
<svg width="1655pt" height="620pt"
 viewBox="0.00 0.00 1654.84 620.00" xmlns="http://www.w3.org/2000/svg" xmlns:xlink="http://www.w3.org/1999/xlink">
<g id="graph0" class="graph" transform="scale(1 1) rotate(0) translate(4 616)">
<polygon fill="white" stroke="none" points="-4,4 -4,-616 1650.84,-616 1650.84,4 -4,4"/>
<!-- REPL -->
<g id="node1" class="node">
<title>REPL</title>
<ellipse fill="none" stroke="black" cx="1407.94" cy="-378" rx="33.29" ry="18"/>
<text text-anchor="middle" x="1407.94" y="-374.3" font-family="Times New Roman,serif" font-size="14.00">REPL</text>
</g>
<!-- Markdown -->
<g id="node2" class="node">
<title>Markdown</title>
<ellipse fill="none" stroke="black" cx="1101.94" cy="-234" rx="50.09" ry="18"/>
<text text-anchor="middle" x="1101.94" y="-230.3" font-family="Times New Roman,serif" font-size="14.00">Markdown</text>
</g>
<!-- REPL&#45;&gt;Markdown -->
<g id="edge1" class="edge">
<title>REPL&#45;&gt;Markdown</title>
<path fill="none" stroke="black" d="M1402.2,-360.25C1394.26,-339.77 1377.9,-305.67 1351.94,-288 1280.54,-239.39 1244.99,-271.98 1160.94,-252 1156.92,-251.04 1152.76,-249.99 1148.6,-248.88"/>
<polygon fill="black" stroke="black" points="1149.51,-245.5 1138.94,-246.24 1147.66,-252.25 1149.51,-245.5"/>
</g>
<!-- InteractiveUtils -->
<g id="node3" class="node">
<title>InteractiveUtils</title>
<ellipse fill="none" stroke="black" cx="1244.94" cy="-306" rx="64.99" ry="18"/>
<text text-anchor="middle" x="1244.94" y="-302.3" font-family="Times New Roman,serif" font-size="14.00">InteractiveUtils</text>
</g>
<!-- REPL&#45;&gt;InteractiveUtils -->
<g id="edge67" class="edge">
<title>REPL&#45;&gt;InteractiveUtils</title>
<path fill="none" stroke="black" d="M1382.83,-366.22C1357.61,-355.38 1318.26,-338.48 1288.04,-325.51"/>
<polygon fill="black" stroke="black" points="1289.14,-322.17 1278.57,-321.44 1286.38,-328.6 1289.14,-322.17"/>
</g>
<!-- Unicode -->
<g id="node15" class="node">
<title>Unicode</title>
<ellipse fill="none" stroke="black" cx="565.94" cy="-162" rx="41.69" ry="18"/>
<text text-anchor="middle" x="565.94" y="-158.3" font-family="Times New Roman,serif" font-size="14.00">Unicode</text>
</g>
<!-- REPL&#45;&gt;Unicode -->
<g id="edge12" class="edge">
<title>REPL&#45;&gt;Unicode</title>
<path fill="none" stroke="black" d="M1391.48,-361.99C1380.16,-351.54 1364.9,-337.17 1351.94,-324 1336.72,-308.53 1338.2,-298.01 1318.94,-288 1209.18,-230.95 1165.13,-271.35 1042.94,-252 884.43,-226.89 697.69,-189.87 612.51,-172.57"/>
<polygon fill="black" stroke="black" points="613.13,-169.12 602.63,-170.56 611.73,-175.98 613.13,-169.12"/>
</g>
<!-- Sockets -->
<g id="node33" class="node">
<title>Sockets</title>
<ellipse fill="none" stroke="black" cx="1481.94" cy="-306" rx="40.09" ry="18"/>
<text text-anchor="middle" x="1481.94" y="-302.3" font-family="Times New Roman,serif" font-size="14.00">Sockets</text>
</g>
<!-- REPL&#45;&gt;Sockets -->
<g id="edge42" class="edge">
<title>REPL&#45;&gt;Sockets</title>
<path fill="none" stroke="black" d="M1424,-361.81C1433.95,-352.4 1446.91,-340.14 1458.04,-329.61"/>
<polygon fill="black" stroke="black" points="1460.55,-332.06 1465.41,-322.64 1455.74,-326.97 1460.55,-332.06"/>
</g>
<!-- Base64 -->
<g id="node26" class="node">
<title>Base64</title>
<ellipse fill="none" stroke="black" cx="1047.94" cy="-162" rx="37.09" ry="18"/>
<text text-anchor="middle" x="1047.94" y="-158.3" font-family="Times New Roman,serif" font-size="14.00">Base64</text>
</g>
<!-- Markdown&#45;&gt;Base64 -->
<g id="edge44" class="edge">
<title>Markdown&#45;&gt;Base64</title>
<path fill="none" stroke="black" d="M1089.15,-216.41C1082.39,-207.66 1073.98,-196.75 1066.52,-187.08"/>
<polygon fill="black" stroke="black" points="1069.16,-184.77 1060.28,-178.99 1063.61,-189.04 1069.16,-184.77"/>
</g>
<!-- InteractiveUtils&#45;&gt;Markdown -->
<g id="edge2" class="edge">
<title>InteractiveUtils&#45;&gt;Markdown</title>
<path fill="none" stroke="black" d="M1214.27,-289.98C1192.48,-279.32 1163.1,-264.94 1139.85,-253.55"/>
<polygon fill="black" stroke="black" points="1141.14,-250.29 1130.62,-249.04 1138.07,-256.58 1141.14,-250.29"/>
</g>
<!-- Downloads -->
<g id="node4" class="node">
<title>Downloads</title>
<ellipse fill="none" stroke="black" cx="319.94" cy="-378" rx="51.99" ry="18"/>
<text text-anchor="middle" x="319.94" y="-374.3" font-family="Times New Roman,serif" font-size="14.00">Downloads</text>
</g>
<!-- FileWatching -->
<g id="node5" class="node">
<title>FileWatching</title>
<ellipse fill="none" stroke="black" cx="132.94" cy="-306" rx="58.49" ry="18"/>
<text text-anchor="middle" x="132.94" y="-302.3" font-family="Times New Roman,serif" font-size="14.00">FileWatching</text>
</g>
<!-- Downloads&#45;&gt;FileWatching -->
<g id="edge3" class="edge">
<title>Downloads&#45;&gt;FileWatching</title>
<path fill="none" stroke="black" d="M286.08,-364.32C255.9,-353.03 211.51,-336.41 178.28,-323.97"/>
<polygon fill="black" stroke="black" points="179.38,-320.64 168.79,-320.42 176.92,-327.2 179.38,-320.64"/>
</g>
<!-- LibCURL -->
<g id="node21" class="node">
<title>LibCURL</title>
<ellipse fill="none" stroke="black" cx="293.94" cy="-306" rx="47.39" ry="18"/>
<text text-anchor="middle" x="293.94" y="-302.3" font-family="Times New Roman,serif" font-size="14.00">LibCURL</text>
</g>
<!-- Downloads&#45;&gt;LibCURL -->
<g id="edge21" class="edge">
<title>Downloads&#45;&gt;LibCURL</title>
<path fill="none" stroke="black" d="M313.65,-360.05C310.72,-352.18 307.17,-342.62 303.9,-333.79"/>
<polygon fill="black" stroke="black" points="307.12,-332.43 300.36,-324.28 300.56,-334.87 307.12,-332.43"/>
</g>
<!-- NetworkOptions -->
<g id="node27" class="node">
<title>NetworkOptions</title>
<ellipse fill="none" stroke="black" cx="734.94" cy="-306" rx="71.49" ry="18"/>
<text text-anchor="middle" x="734.94" y="-302.3" font-family="Times New Roman,serif" font-size="14.00">NetworkOptions</text>
</g>
<!-- Downloads&#45;&gt;NetworkOptions -->
<g id="edge60" class="edge">
<title>Downloads&#45;&gt;NetworkOptions</title>
<path fill="none" stroke="black" d="M357.84,-365.66C365.45,-363.6 373.42,-361.61 380.94,-360 476.67,-339.58 588.6,-324.22 660.57,-315.43"/>
<polygon fill="black" stroke="black" points="661.38,-318.86 670.89,-314.18 660.54,-311.91 661.38,-318.86"/>
</g>
<!-- ArgTools -->
<g id="node28" class="node">
<title>ArgTools</title>
<ellipse fill="none" stroke="black" cx="405.94" cy="-306" rx="46.29" ry="18"/>
<text text-anchor="middle" x="405.94" y="-302.3" font-family="Times New Roman,serif" font-size="14.00">ArgTools</text>
</g>
<!-- Downloads&#45;&gt;ArgTools -->
<g id="edge76" class="edge">
<title>Downloads&#45;&gt;ArgTools</title>
<path fill="none" stroke="black" d="M339.46,-361.12C351.09,-351.65 366.02,-339.5 378.78,-329.11"/>
<polygon fill="black" stroke="black" points="381.26,-331.61 386.8,-322.58 376.84,-326.18 381.26,-331.61"/>
</g>
<!-- LibCURL_jll -->
<g id="node6" class="node">
<title>LibCURL_jll</title>
<ellipse fill="none" stroke="black" cx="191.94" cy="-234" rx="57.69" ry="18"/>
<text text-anchor="middle" x="191.94" y="-230.3" font-family="Times New Roman,serif" font-size="14.00">LibCURL_jll</text>
</g>
<!-- Artifacts -->
<g id="node7" class="node">
<title>Artifacts</title>
<ellipse fill="none" stroke="black" cx="54.94" cy="-18" rx="42.49" ry="18"/>
<text text-anchor="middle" x="54.94" y="-14.3" font-family="Times New Roman,serif" font-size="14.00">Artifacts</text>
</g>
<!-- LibCURL_jll&#45;&gt;Artifacts -->
<g id="edge4" class="edge">
<title>LibCURL_jll&#45;&gt;Artifacts</title>
<path fill="none" stroke="black" d="M158.85,-219.17C119.1,-200.54 54.37,-163.19 26.94,-108 16.71,-87.4 26.44,-62.27 37.14,-43.97"/>
<polygon fill="black" stroke="black" points="40.21,-45.67 42.56,-35.34 34.28,-41.95 40.21,-45.67"/>
</g>
<!-- LibSSH2_jll -->
<g id="node11" class="node">
<title>LibSSH2_jll</title>
<ellipse fill="none" stroke="black" cx="274.94" cy="-162" rx="55.49" ry="18"/>
<text text-anchor="middle" x="274.94" y="-158.3" font-family="Times New Roman,serif" font-size="14.00">LibSSH2_jll</text>
</g>
<!-- LibCURL_jll&#45;&gt;LibSSH2_jll -->
<g id="edge8" class="edge">
<title>LibCURL_jll&#45;&gt;LibSSH2_jll</title>
<path fill="none" stroke="black" d="M211.19,-216.76C222.09,-207.58 235.89,-195.94 247.86,-185.84"/>
<polygon fill="black" stroke="black" points="250.41,-188.27 255.8,-179.15 245.9,-182.92 250.41,-188.27"/>
</g>
<!-- MbedTLS_jll -->
<g id="node19" class="node">
<title>MbedTLS_jll</title>
<ellipse fill="none" stroke="black" cx="362.94" cy="-90" rx="59.59" ry="18"/>
<text text-anchor="middle" x="362.94" y="-86.3" font-family="Times New Roman,serif" font-size="14.00">MbedTLS_jll</text>
</g>
<!-- LibCURL_jll&#45;&gt;MbedTLS_jll -->
<g id="edge16" class="edge">
<title>LibCURL_jll&#45;&gt;MbedTLS_jll</title>
<path fill="none" stroke="black" d="M235.52,-222.08C273.49,-211.74 324.66,-195.52 338.94,-180 354.31,-163.31 360.02,-137.82 362.05,-118.38"/>
<polygon fill="black" stroke="black" points="365.55,-118.55 362.84,-108.31 358.57,-118 365.55,-118.55"/>
</g>
<!-- nghttp2_jll -->
<g id="node22" class="node">
<title>nghttp2_jll</title>
<ellipse fill="none" stroke="black" cx="197.94" cy="-90" rx="48.99" ry="18"/>
<text text-anchor="middle" x="197.94" y="-86.3" font-family="Times New Roman,serif" font-size="14.00">nghttp2_jll</text>
</g>
<!-- LibCURL_jll&#45;&gt;nghttp2_jll -->
<g id="edge78" class="edge">
<title>LibCURL_jll&#45;&gt;nghttp2_jll</title>
<path fill="none" stroke="black" d="M192.67,-215.87C193.69,-191.67 195.57,-147.21 196.79,-118.39"/>
<polygon fill="black" stroke="black" points="200.29,-118.33 197.22,-108.19 193.3,-118.03 200.29,-118.33"/>
</g>
<!-- Libdl -->
<g id="node23" class="node">
<title>Libdl</title>
<ellipse fill="none" stroke="black" cx="362.94" cy="-18" rx="29.8" ry="18"/>
<text text-anchor="middle" x="362.94" y="-14.3" font-family="Times New Roman,serif" font-size="14.00">Libdl</text>
</g>
<!-- LibCURL_jll&#45;&gt;Libdl -->
<g id="edge37" class="edge">
<title>LibCURL_jll&#45;&gt;Libdl</title>
<path fill="none" stroke="black" d="M236.07,-222.33C295.87,-207.82 396.12,-183.27 403.94,-180 460.62,-156.28 491.87,-161.57 521.94,-108 529.78,-94.05 531.3,-84.98 521.94,-72 495.04,-34.67 440.71,-23.24 403.09,-19.95"/>
<polygon fill="black" stroke="black" points="403.19,-16.45 392.97,-19.22 402.69,-23.43 403.19,-16.45"/>
</g>
<!-- Zlib_jll -->
<g id="node31" class="node">
<title>Zlib_jll</title>
<ellipse fill="none" stroke="black" cx="476.94" cy="-90" rx="36" ry="18"/>
<text text-anchor="middle" x="476.94" y="-86.3" font-family="Times New Roman,serif" font-size="14.00">Zlib_jll</text>
</g>
<!-- LibCURL_jll&#45;&gt;Zlib_jll -->
<g id="edge61" class="edge">
<title>LibCURL_jll&#45;&gt;Zlib_jll</title>
<path fill="none" stroke="black" d="M234.36,-221.74C277.31,-210.01 340.5,-191.74 362.94,-180 397.43,-161.97 431.94,-133.16 453.8,-113.22"/>
<polygon fill="black" stroke="black" points="456.3,-115.68 461.27,-106.31 451.55,-110.54 456.3,-115.68"/>
</g>
<!-- Pkg -->
<g id="node8" class="node">
<title>Pkg</title>
<ellipse fill="none" stroke="black" cx="735.94" cy="-450" rx="27" ry="18"/>
<text text-anchor="middle" x="735.94" y="-446.3" font-family="Times New Roman,serif" font-size="14.00">Pkg</text>
</g>
<!-- Pkg&#45;&gt;REPL -->
<g id="edge5" class="edge">
<title>Pkg&#45;&gt;REPL</title>
<path fill="none" stroke="black" d="M762.8,-446.89C843.01,-440.48 1087.76,-420.22 1289.94,-396 1315.43,-392.95 1343.91,-388.86 1366.51,-385.46"/>
<polygon fill="black" stroke="black" points="1367.08,-388.92 1376.45,-383.95 1366.03,-381.99 1367.08,-388.92"/>
</g>
<!-- Pkg&#45;&gt;Markdown -->
<g id="edge77" class="edge">
<title>Pkg&#45;&gt;Markdown</title>
<path fill="none" stroke="black" d="M763,-447.42C805.75,-443.85 890.29,-432.39 950.94,-396 1006.27,-362.81 1003.34,-334.62 1047.94,-288 1057.55,-277.96 1068.43,-267.18 1077.89,-257.97"/>
<polygon fill="black" stroke="black" points="1080.38,-260.44 1085.13,-250.97 1075.51,-255.41 1080.38,-260.44"/>
</g>
<!-- Pkg&#45;&gt;Downloads -->
<g id="edge70" class="edge">
<title>Pkg&#45;&gt;Downloads</title>
<path fill="none" stroke="black" d="M709.47,-446.18C650.21,-439.63 502.53,-421.92 380.94,-396 376.59,-395.07 372.09,-394.01 367.6,-392.89"/>
<polygon fill="black" stroke="black" points="368.4,-389.48 357.84,-390.34 366.63,-396.25 368.4,-389.48"/>
</g>
<!-- Pkg&#45;&gt;Artifacts -->
<g id="edge14" class="edge">
<title>Pkg&#45;&gt;Artifacts</title>
<path fill="none" stroke="black" d="M708.8,-448.38C593.82,-445.14 149.07,-426.08 65.94,-324 -6,-235.66 -14.54,-180.9 18.94,-72 22.08,-61.79 27.93,-51.79 34.01,-43.27"/>
<polygon fill="black" stroke="black" points="36.81,-45.37 40.08,-35.29 31.24,-41.13 36.81,-45.37"/>
</g>
<!-- p7zip_jll -->
<g id="node9" class="node">
<title>p7zip_jll</title>
<ellipse fill="none" stroke="black" cx="89.94" cy="-90" rx="41.69" ry="18"/>
<text text-anchor="middle" x="89.94" y="-86.3" font-family="Times New Roman,serif" font-size="14.00">p7zip_jll</text>
</g>
<!-- Pkg&#45;&gt;p7zip_jll -->
<g id="edge18" class="edge">
<title>Pkg&#45;&gt;p7zip_jll</title>
<path fill="none" stroke="black" d="M708.88,-449.2C619.22,-449.36 333.34,-445.89 258.94,-396 213.52,-365.54 239.62,-325.65 199.94,-288 173.12,-262.55 147.87,-281.01 124.94,-252 94.22,-213.12 89.05,-153.12 88.92,-118.4"/>
<polygon fill="black" stroke="black" points="92.42,-118.11 89.03,-108.08 85.42,-118.04 92.42,-118.11"/>
</g>
<!-- SHA -->
<g id="node10" class="node">
<title>SHA</title>
<ellipse fill="none" stroke="black" cx="909.94" cy="-162" rx="28.7" ry="18"/>
<text text-anchor="middle" x="909.94" y="-158.3" font-family="Times New Roman,serif" font-size="14.00">SHA</text>
</g>
<!-- Pkg&#45;&gt;SHA -->
<g id="edge7" class="edge">
<title>Pkg&#45;&gt;SHA</title>
<path fill="none" stroke="black" d="M746.08,-433.31C761.26,-409.72 790.72,-363.65 814.94,-324 844.07,-276.31 877,-219.94 895.43,-188.14"/>
<polygon fill="black" stroke="black" points="898.68,-189.5 900.67,-179.09 892.63,-185.99 898.68,-189.5"/>
</g>
<!-- TOML -->
<g id="node12" class="node">
<title>TOML</title>
<ellipse fill="none" stroke="black" cx="535.94" cy="-378" rx="36.29" ry="18"/>
<text text-anchor="middle" x="535.94" y="-374.3" font-family="Times New Roman,serif" font-size="14.00">TOML</text>
</g>
<!-- Pkg&#45;&gt;TOML -->
<g id="edge9" class="edge">
<title>Pkg&#45;&gt;TOML</title>
<path fill="none" stroke="black" d="M712.61,-440.83C678.72,-428.97 615.47,-406.84 574.57,-392.52"/>
<polygon fill="black" stroke="black" points="575.53,-389.15 564.94,-389.15 573.22,-395.75 575.53,-389.15"/>
</g>
<!-- Printf -->
<g id="node13" class="node">
<title>Printf</title>
<ellipse fill="none" stroke="black" cx="571.94" cy="-234" rx="30.59" ry="18"/>
<text text-anchor="middle" x="571.94" y="-230.3" font-family="Times New Roman,serif" font-size="14.00">Printf</text>
</g>
<!-- Pkg&#45;&gt;Printf -->
<g id="edge10" class="edge">
<title>Pkg&#45;&gt;Printf</title>
<path fill="none" stroke="black" d="M710.27,-443.97C683.69,-437.43 642.77,-423.45 618.94,-396 601.51,-375.91 585.03,-302.51 577.01,-262.11"/>
<polygon fill="black" stroke="black" points="580.42,-261.28 575.07,-252.14 573.55,-262.62 580.42,-261.28"/>
</g>
<!-- LibGit2 -->
<g id="node14" class="node">
<title>LibGit2</title>
<ellipse fill="none" stroke="black" cx="870.94" cy="-378" rx="38.19" ry="18"/>
<text text-anchor="middle" x="870.94" y="-374.3" font-family="Times New Roman,serif" font-size="14.00">LibGit2</text>
</g>
<!-- Pkg&#45;&gt;LibGit2 -->
<g id="edge62" class="edge">
<title>Pkg&#45;&gt;LibGit2</title>
<path fill="none" stroke="black" d="M756.74,-438.22C778.22,-427.08 812.06,-409.53 837.34,-396.42"/>
<polygon fill="black" stroke="black" points="838.96,-399.53 846.23,-391.82 835.74,-393.31 838.96,-399.53"/>
</g>
<!-- Serialization -->
<g id="node17" class="node">
<title>Serialization</title>
<ellipse fill="none" stroke="black" cx="1211.94" cy="-162" rx="53.89" ry="18"/>
<text text-anchor="middle" x="1211.94" y="-158.3" font-family="Times New Roman,serif" font-size="14.00">Serialization</text>
</g>
<!-- Pkg&#45;&gt;Serialization -->
<g id="edge58" class="edge">
<title>Pkg&#45;&gt;Serialization</title>
<path fill="none" stroke="black" d="M762.77,-446.8C800.59,-442.54 870.26,-430.3 917.94,-396 957.48,-367.56 1003.7,-244.84 1042.94,-216 1075.19,-192.3 1118.33,-179 1152.95,-171.65"/>
<polygon fill="black" stroke="black" points="1153.82,-175.04 1162.94,-169.64 1152.45,-168.18 1153.82,-175.04"/>
</g>
<!-- Tar -->
<g id="node18" class="node">
<title>Tar</title>
<ellipse fill="none" stroke="black" cx="416.94" cy="-378" rx="27" ry="18"/>
<text text-anchor="middle" x="416.94" y="-374.3" font-family="Times New Roman,serif" font-size="14.00">Tar</text>
</g>
<!-- Pkg&#45;&gt;Tar -->
<g id="edge15" class="edge">
<title>Pkg&#45;&gt;Tar</title>
<path fill="none" stroke="black" d="M709.45,-445.79C659.51,-439.33 548.32,-423.04 457.94,-396 454.77,-395.05 451.5,-393.94 448.27,-392.75"/>
<polygon fill="black" stroke="black" points="449.36,-389.42 438.77,-389.02 446.8,-395.93 449.36,-389.42"/>
</g>
<!-- Random -->
<g id="node20" class="node">
<title>Random</title>
<ellipse fill="none" stroke="black" cx="1211.94" cy="-234" rx="42.49" ry="18"/>
<text text-anchor="middle" x="1211.94" y="-230.3" font-family="Times New Roman,serif" font-size="14.00">Random</text>
</g>
<!-- Pkg&#45;&gt;Random -->
<g id="edge46" class="edge">
<title>Pkg&#45;&gt;Random</title>
<path fill="none" stroke="black" d="M762.97,-448.66C810.89,-446.92 912.55,-438.12 984.94,-396 1012.7,-379.85 1054.7,-306.51 1080.94,-288 1095.89,-277.46 1137.85,-261.22 1170.3,-249.5"/>
<polygon fill="black" stroke="black" points="1171.79,-252.68 1180.02,-246.01 1169.43,-246.09 1171.79,-252.68"/>
</g>
<!-- Pkg&#45;&gt;Libdl -->
<g id="edge26" class="edge">
<title>Pkg&#45;&gt;Libdl</title>
<path fill="none" stroke="black" d="M736.27,-431.95C735.8,-412.72 732.44,-381.36 716.94,-360 698.24,-334.21 673.65,-349.79 654.94,-324 631.2,-291.26 635.94,-275.45 635.94,-235 635.94,-235 635.94,-235 635.94,-161 635.94,-57.17 478.59,-29.15 402.81,-21.67"/>
<polygon fill="black" stroke="black" points="402.96,-18.17 392.68,-20.75 402.32,-25.14 402.96,-18.17"/>
</g>
<!-- UUIDs -->
<g id="node25" class="node">
<title>UUIDs</title>
<ellipse fill="none" stroke="black" cx="1125.94" cy="-306" rx="36.29" ry="18"/>
<text text-anchor="middle" x="1125.94" y="-302.3" font-family="Times New Roman,serif" font-size="14.00">UUIDs</text>
</g>
<!-- Pkg&#45;&gt;UUIDs -->
<g id="edge28" class="edge">
<title>Pkg&#45;&gt;UUIDs</title>
<path fill="none" stroke="black" d="M763.14,-448.9C816.51,-447.7 937.51,-439.89 1026.94,-396 1058.82,-380.36 1088.08,-351.45 1106.4,-330.82"/>
<polygon fill="black" stroke="black" points="1109.19,-332.94 1113.09,-323.09 1103.9,-328.36 1109.19,-332.94"/>
</g>
<!-- Dates -->
<g id="node30" class="node">
<title>Dates</title>
<ellipse fill="none" stroke="black" cx="538.94" cy="-306" rx="31.4" ry="18"/>
<text text-anchor="middle" x="538.94" y="-302.3" font-family="Times New Roman,serif" font-size="14.00">Dates</text>
</g>
<!-- Pkg&#45;&gt;Dates -->
<g id="edge65" class="edge">
<title>Pkg&#45;&gt;Dates</title>
<path fill="none" stroke="black" d="M708.96,-447.3C651.1,-443.03 518.13,-429.7 490.94,-396 474.01,-375.01 494.68,-347.17 513.92,-328.25"/>
<polygon fill="black" stroke="black" points="516.52,-330.62 521.42,-321.23 511.73,-325.51 516.52,-330.62"/>
</g>
<!-- Logging -->
<g id="node35" class="node">
<title>Logging</title>
<ellipse fill="none" stroke="black" cx="667.94" cy="-378" rx="40.09" ry="18"/>
<text text-anchor="middle" x="667.94" y="-374.3" font-family="Times New Roman,serif" font-size="14.00">Logging</text>
</g>
<!-- Pkg&#45;&gt;Logging -->
<g id="edge45" class="edge">
<title>Pkg&#45;&gt;Logging</title>
<path fill="none" stroke="black" d="M721.85,-434.5C712.84,-425.22 700.94,-412.97 690.61,-402.34"/>
<polygon fill="black" stroke="black" points="692.92,-399.68 683.44,-394.95 687.9,-404.56 692.92,-399.68"/>
</g>
<!-- p7zip_jll&#45;&gt;Artifacts -->
<g id="edge6" class="edge">
<title>p7zip_jll&#45;&gt;Artifacts</title>
<path fill="none" stroke="black" d="M81.47,-72.05C77.39,-63.89 72.4,-53.91 67.86,-44.82"/>
<polygon fill="black" stroke="black" points="70.94,-43.17 63.34,-35.79 64.68,-46.3 70.94,-43.17"/>
</g>
<!-- p7zip_jll&#45;&gt;Libdl -->
<g id="edge63" class="edge">
<title>p7zip_jll&#45;&gt;Libdl</title>
<path fill="none" stroke="black" d="M121.01,-77.93C127.24,-75.85 133.78,-73.78 139.94,-72 204.33,-53.45 280.49,-36.37 325.09,-26.86"/>
<polygon fill="black" stroke="black" points="325.85,-30.27 334.91,-24.77 324.4,-23.42 325.85,-30.27"/>
</g>
<!-- LibSSH2_jll&#45;&gt;Artifacts -->
<g id="edge20" class="edge">
<title>LibSSH2_jll&#45;&gt;Artifacts</title>
<path fill="none" stroke="black" d="M222.13,-156.68C159.71,-150.35 61.44,-136.11 38.94,-108 24.76,-90.28 31.7,-64.19 40.43,-44.83"/>
<polygon fill="black" stroke="black" points="43.66,-46.19 44.91,-35.67 37.37,-43.12 43.66,-46.19"/>
</g>
<!-- LibSSH2_jll&#45;&gt;MbedTLS_jll -->
<g id="edge80" class="edge">
<title>LibSSH2_jll&#45;&gt;MbedTLS_jll</title>
<path fill="none" stroke="black" d="M294.91,-145.12C306.64,-135.78 321.66,-123.84 334.6,-113.55"/>
<polygon fill="black" stroke="black" points="337.1,-116.03 342.75,-107.06 332.75,-110.55 337.1,-116.03"/>
</g>
<!-- LibSSH2_jll&#45;&gt;Libdl -->
<g id="edge72" class="edge">
<title>LibSSH2_jll&#45;&gt;Libdl</title>
<path fill="none" stroke="black" d="M275.15,-143.96C276.11,-125.02 279.94,-94.18 293.94,-72 303.34,-57.12 318.47,-44.81 332.17,-35.81"/>
<polygon fill="black" stroke="black" points="334.25,-38.63 340.89,-30.38 330.55,-32.69 334.25,-38.63"/>
</g>
<!-- TOML&#45;&gt;Dates -->
<g id="edge39" class="edge">
<title>TOML&#45;&gt;Dates</title>
<path fill="none" stroke="black" d="M536.69,-359.7C537.02,-351.98 537.41,-342.71 537.78,-334.11"/>
<polygon fill="black" stroke="black" points="541.28,-334.25 538.21,-324.1 534.29,-333.95 541.28,-334.25"/>
</g>
<!-- Printf&#45;&gt;Unicode -->
<g id="edge52" class="edge">
<title>Printf&#45;&gt;Unicode</title>
<path fill="none" stroke="black" d="M570.46,-215.7C569.8,-207.98 569.01,-198.71 568.27,-190.11"/>
<polygon fill="black" stroke="black" points="571.75,-189.77 567.41,-180.1 564.78,-190.37 571.75,-189.77"/>
</g>
<!-- LibGit2&#45;&gt;SHA -->
<g id="edge68" class="edge">
<title>LibGit2&#45;&gt;SHA</title>
<path fill="none" stroke="black" d="M876.37,-359.95C879.5,-349.63 883.33,-336.15 885.94,-324 895.98,-277.33 903.22,-222.16 906.99,-190.02"/>
<polygon fill="black" stroke="black" points="910.47,-190.38 908.13,-180.05 903.51,-189.59 910.47,-190.38"/>
</g>
<!-- LibGit2&#45;&gt;Printf -->
<g id="edge11" class="edge">
<title>LibGit2&#45;&gt;Printf</title>
<path fill="none" stroke="black" d="M864.97,-360.01C856.9,-339.62 840.5,-305.93 814.94,-288 753.77,-245.07 664.24,-235.96 612.66,-234.57"/>
<polygon fill="black" stroke="black" points="612.63,-231.07 602.56,-234.38 612.5,-238.06 612.63,-231.07"/>
</g>
<!-- LibGit2&#45;&gt;Base64 -->
<g id="edge30" class="edge">
<title>LibGit2&#45;&gt;Base64</title>
<path fill="none" stroke="black" d="M884.25,-360.92C915.14,-323.57 991.86,-230.81 1028.22,-186.84"/>
<polygon fill="black" stroke="black" points="1031.05,-188.92 1034.73,-178.98 1025.66,-184.45 1031.05,-188.92"/>
</g>
<!-- LibGit2&#45;&gt;NetworkOptions -->
<g id="edge31" class="edge">
<title>LibGit2&#45;&gt;NetworkOptions</title>
<path fill="none" stroke="black" d="M846,-364.16C825.83,-353.78 797.06,-338.97 773.86,-327.03"/>
<polygon fill="black" stroke="black" points="775.45,-323.91 764.95,-322.45 772.24,-330.13 775.45,-323.91"/>
</g>
<!-- Distributed -->
<g id="node16" class="node">
<title>Distributed</title>
<ellipse fill="none" stroke="black" cx="1548.94" cy="-378" rx="50.89" ry="18"/>
<text text-anchor="middle" x="1548.94" y="-374.3" font-family="Times New Roman,serif" font-size="14.00">Distributed</text>
</g>
<!-- Distributed&#45;&gt;Serialization -->
<g id="edge13" class="edge">
<title>Distributed&#45;&gt;Serialization</title>
<path fill="none" stroke="black" d="M1555.42,-359.89C1561.53,-340.6 1567.74,-309.18 1552.94,-288 1490.31,-198.33 1356,-172.79 1275.9,-165.64"/>
<polygon fill="black" stroke="black" points="1275.7,-162.11 1265.45,-164.78 1275.13,-169.09 1275.7,-162.11"/>
</g>
<!-- Distributed&#45;&gt;Random -->
<g id="edge19" class="edge">
<title>Distributed&#45;&gt;Random</title>
<path fill="none" stroke="black" d="M1550.74,-359.92C1551.83,-339.75 1550.22,-306.62 1530.94,-288 1493.74,-252.08 1344.88,-240.41 1264.33,-236.69"/>
<polygon fill="black" stroke="black" points="1264.06,-233.18 1253.91,-236.24 1263.75,-240.17 1264.06,-233.18"/>
</g>
<!-- Distributed&#45;&gt;Sockets -->
<g id="edge50" class="edge">
<title>Distributed&#45;&gt;Sockets</title>
<path fill="none" stroke="black" d="M1533.4,-360.76C1524.78,-351.75 1513.9,-340.39 1504.37,-330.43"/>
<polygon fill="black" stroke="black" points="1506.84,-327.95 1497.4,-323.15 1501.79,-332.79 1506.84,-327.95"/>
</g>
<!-- Tar&#45;&gt;SHA -->
<g id="edge27" class="edge">
<title>Tar&#45;&gt;SHA</title>
<path fill="none" stroke="black" d="M430.11,-362.05C439.11,-351.63 451.13,-337.26 460.94,-324 495.12,-277.83 483.41,-246.72 531.94,-216 587.86,-180.61 786.57,-168.18 871.26,-164.43"/>
<polygon fill="black" stroke="black" points="871.64,-167.91 881.48,-163.99 871.34,-160.92 871.64,-167.91"/>
</g>
<!-- Tar&#45;&gt;ArgTools -->
<g id="edge33" class="edge">
<title>Tar&#45;&gt;ArgTools</title>
<path fill="none" stroke="black" d="M414.28,-360.05C413.07,-352.35 411.61,-343.03 410.24,-334.36"/>
<polygon fill="black" stroke="black" points="413.67,-333.61 408.66,-324.28 406.75,-334.7 413.67,-333.61"/>
</g>
<!-- MbedTLS_jll&#45;&gt;Artifacts -->
<g id="edge17" class="edge">
<title>MbedTLS_jll&#45;&gt;Artifacts</title>
<path fill="none" stroke="black" d="M316.83,-78.52C258.73,-65.32 159.46,-42.75 101.26,-29.53"/>
<polygon fill="black" stroke="black" points="101.77,-26.05 91.24,-27.25 100.22,-32.88 101.77,-26.05"/>
</g>
<!-- MbedTLS_jll&#45;&gt;Libdl -->
<g id="edge35" class="edge">
<title>MbedTLS_jll&#45;&gt;Libdl</title>
<path fill="none" stroke="black" d="M362.94,-71.7C362.94,-63.98 362.94,-54.71 362.94,-46.11"/>
<polygon fill="black" stroke="black" points="366.44,-46.1 362.94,-36.1 359.44,-46.1 366.44,-46.1"/>
</g>
<!-- Random&#45;&gt;SHA -->
<g id="edge25" class="edge">
<title>Random&#45;&gt;SHA</title>
<path fill="none" stroke="black" d="M1180.56,-221.92C1174.11,-219.82 1167.34,-217.74 1160.94,-216 1121,-205.16 1006.78,-182.13 947.17,-170.32"/>
<polygon fill="black" stroke="black" points="947.54,-166.82 937.05,-168.32 946.18,-173.69 947.54,-166.82"/>
</g>
<!-- Random&#45;&gt;Serialization -->
<g id="edge55" class="edge">
<title>Random&#45;&gt;Serialization</title>
<path fill="none" stroke="black" d="M1211.94,-215.7C1211.94,-207.98 1211.94,-198.71 1211.94,-190.11"/>
<polygon fill="black" stroke="black" points="1215.44,-190.1 1211.94,-180.1 1208.44,-190.1 1215.44,-190.1"/>
</g>
<!-- LibCURL&#45;&gt;LibCURL_jll -->
<g id="edge32" class="edge">
<title>LibCURL&#45;&gt;LibCURL_jll</title>
<path fill="none" stroke="black" d="M272.06,-289.98C257.84,-280.22 239.07,-267.34 223.27,-256.5"/>
<polygon fill="black" stroke="black" points="225.08,-253.49 214.85,-250.72 221.12,-259.26 225.08,-253.49"/>
</g>
<!-- MozillaCACerts_jll -->
<g id="node37" class="node">
<title>MozillaCACerts_jll</title>
<ellipse fill="none" stroke="black" cx="385.94" cy="-234" rx="79.89" ry="18"/>
<text text-anchor="middle" x="385.94" y="-230.3" font-family="Times New Roman,serif" font-size="14.00">MozillaCACerts_jll</text>
</g>
<!-- LibCURL&#45;&gt;MozillaCACerts_jll -->
<g id="edge49" class="edge">
<title>LibCURL&#45;&gt;MozillaCACerts_jll</title>
<path fill="none" stroke="black" d="M314.36,-289.46C326.64,-280.13 342.48,-268.07 356.13,-257.68"/>
<polygon fill="black" stroke="black" points="358.46,-260.31 364.3,-251.47 354.22,-254.74 358.46,-260.31"/>
</g>
<!-- nghttp2_jll&#45;&gt;Artifacts -->
<g id="edge24" class="edge">
<title>nghttp2_jll&#45;&gt;Artifacts</title>
<path fill="none" stroke="black" d="M169.69,-75.17C147.13,-64.13 115.36,-48.58 90.97,-36.64"/>
<polygon fill="black" stroke="black" points="92.21,-33.34 81.69,-32.09 89.13,-39.63 92.21,-33.34"/>
</g>
<!-- nghttp2_jll&#45;&gt;Libdl -->
<g id="edge22" class="edge">
<title>nghttp2_jll&#45;&gt;Libdl</title>
<path fill="none" stroke="black" d="M228.59,-76C257.31,-63.81 300.13,-45.65 329.67,-33.12"/>
<polygon fill="black" stroke="black" points="331.3,-36.23 339.14,-29.1 328.57,-29.78 331.3,-36.23"/>
</g>
<!-- Revise -->
<g id="node24" class="node">
<title>Revise</title>
<ellipse fill="none" stroke="black" cx="1145.94" cy="-594" rx="35.19" ry="18"/>
<text text-anchor="middle" x="1145.94" y="-590.3" font-family="Times New Roman,serif" font-size="14.00">Revise</text>
</g>
<!-- Revise&#45;&gt;REPL -->
<g id="edge36" class="edge">
<title>Revise&#45;&gt;REPL</title>
<path fill="none" stroke="black" d="M1180.54,-590.77C1242.83,-585.98 1369.95,-572.39 1397.94,-540 1429.98,-502.94 1422.91,-441.37 1415.21,-406.08"/>
<polygon fill="black" stroke="black" points="1418.54,-404.96 1412.85,-396.02 1411.73,-406.56 1418.54,-404.96"/>
</g>
<!-- Revise&#45;&gt;FileWatching -->
<g id="edge64" class="edge">
<title>Revise&#45;&gt;FileWatching</title>
<path fill="none" stroke="black" d="M1112.61,-588.09C1054.86,-579.42 932.51,-560.4 829.94,-540 550.36,-484.4 446.68,-547.06 204.94,-396 179.95,-380.38 159.75,-352.99 147.18,-332.71"/>
<polygon fill="black" stroke="black" points="150.09,-330.75 141.95,-323.96 144.08,-334.34 150.09,-330.75"/>
</g>
<!-- Revise&#45;&gt;Pkg -->
<g id="edge38" class="edge">
<title>Revise&#45;&gt;Pkg</title>
<path fill="none" stroke="black" d="M1112.58,-587.96C1066.86,-580.47 982.59,-564.6 913.94,-540 858.8,-520.24 798.61,-487.61 764.26,-467.83"/>
<polygon fill="black" stroke="black" points="765.69,-464.61 755.28,-462.61 762.17,-470.66 765.69,-464.61"/>
</g>
<!-- Revise&#45;&gt;LibGit2 -->
<g id="edge51" class="edge">
<title>Revise&#45;&gt;LibGit2</title>
<path fill="none" stroke="black" d="M1127.47,-578.63C1080.05,-541.72 953.83,-443.5 898.07,-400.11"/>
<polygon fill="black" stroke="black" points="900.1,-397.26 890.06,-393.88 895.8,-402.78 900.1,-397.26"/>
</g>
<!-- Revise&#45;&gt;Unicode -->
<g id="edge47" class="edge">
<title>Revise&#45;&gt;Unicode</title>
<path fill="none" stroke="black" d="M1110.93,-592.25C923.47,-587.77 46.94,-560.96 46.94,-451 46.94,-451 46.94,-451 46.94,-377 46.94,-336.55 36.98,-316.23 65.94,-288 128.44,-227.1 181.2,-291.63 258.94,-252 279.67,-241.43 276.27,-226.67 296.94,-216 316.3,-206.01 445.44,-183.22 517.52,-171.03"/>
<polygon fill="black" stroke="black" points="518.44,-174.43 527.72,-169.32 517.28,-167.53 518.44,-174.43"/>
</g>
<!-- Revise&#45;&gt;Distributed -->
<g id="edge23" class="edge">
<title>Revise&#45;&gt;Distributed</title>
<path fill="none" stroke="black" d="M1181.26,-593.78C1236.43,-593.42 1344.64,-586.23 1420.94,-540 1475.61,-506.88 1516.41,-441.36 1536.01,-404.94"/>
<polygon fill="black" stroke="black" points="1539.2,-406.4 1540.75,-395.92 1533,-403.15 1539.2,-406.4"/>
</g>
<!-- Revise&#45;&gt;UUIDs -->
<g id="edge66" class="edge">
<title>Revise&#45;&gt;UUIDs</title>
<path fill="none" stroke="black" d="M1144.75,-575.97C1141.42,-528.29 1131.97,-393.18 1127.88,-334.63"/>
<polygon fill="black" stroke="black" points="1131.34,-334.04 1127.15,-324.31 1124.36,-334.53 1131.34,-334.04"/>
</g>
<!-- JuliaInterpreter -->
<g id="node29" class="node">
<title>JuliaInterpreter</title>
<ellipse fill="none" stroke="black" cx="1309.94" cy="-450" rx="63.89" ry="18"/>
<text text-anchor="middle" x="1309.94" y="-446.3" font-family="Times New Roman,serif" font-size="14.00">JuliaInterpreter</text>
</g>
<!-- Revise&#45;&gt;JuliaInterpreter -->
<g id="edge79" class="edge">
<title>Revise&#45;&gt;JuliaInterpreter</title>
<path fill="none" stroke="black" d="M1157.23,-576.84C1171.02,-557.88 1195.75,-526.2 1221.94,-504 1236.73,-491.47 1254.82,-480.03 1270.74,-471.01"/>
<polygon fill="black" stroke="black" points="1272.77,-473.89 1279.83,-465.98 1269.38,-467.76 1272.77,-473.89"/>
</g>
<!-- LoweredCodeUtils -->
<g id="node32" class="node">
<title>LoweredCodeUtils</title>
<ellipse fill="none" stroke="black" cx="1309.94" cy="-522" rx="79.09" ry="18"/>
<text text-anchor="middle" x="1309.94" y="-518.3" font-family="Times New Roman,serif" font-size="14.00">LoweredCodeUtils</text>
</g>
<!-- Revise&#45;&gt;LoweredCodeUtils -->
<g id="edge41" class="edge">
<title>Revise&#45;&gt;LoweredCodeUtils</title>
<path fill="none" stroke="black" d="M1172.29,-581.75C1197.29,-571.08 1235.36,-554.83 1265.13,-542.13"/>
<polygon fill="black" stroke="black" points="1266.66,-545.28 1274.48,-538.14 1263.91,-538.84 1266.66,-545.28"/>
</g>
<!-- Requires -->
<g id="node34" class="node">
<title>Requires</title>
<ellipse fill="none" stroke="black" cx="1055.94" cy="-450" rx="42.79" ry="18"/>
<text text-anchor="middle" x="1055.94" y="-446.3" font-family="Times New Roman,serif" font-size="14.00">Requires</text>
</g>
<!-- Revise&#45;&gt;Requires -->
<g id="edge59" class="edge">
<title>Revise&#45;&gt;Requires</title>
<path fill="none" stroke="black" d="M1135.62,-576.71C1120.04,-552.13 1090.38,-505.33 1071.97,-476.29"/>
<polygon fill="black" stroke="black" points="1074.73,-474.11 1066.42,-467.54 1068.82,-477.86 1074.73,-474.11"/>
</g>
<!-- CodeTracking -->
<g id="node36" class="node">
<title>CodeTracking</title>
<ellipse fill="none" stroke="black" cx="1217.94" cy="-378" rx="63.09" ry="18"/>
<text text-anchor="middle" x="1217.94" y="-374.3" font-family="Times New Roman,serif" font-size="14.00">CodeTracking</text>
</g>
<!-- Revise&#45;&gt;CodeTracking -->
<g id="edge48" class="edge">
<title>Revise&#45;&gt;CodeTracking</title>
<path fill="none" stroke="black" d="M1151.59,-576.21C1164.05,-539.19 1193.96,-450.3 1208.99,-405.6"/>
<polygon fill="black" stroke="black" points="1212.35,-406.6 1212.22,-396.01 1205.71,-404.37 1212.35,-406.6"/>
</g>
<!-- OrderedCollections -->
<g id="node38" class="node">
<title>OrderedCollections</title>
<ellipse fill="none" stroke="black" cx="1564.94" cy="-522" rx="81.79" ry="18"/>
<text text-anchor="middle" x="1564.94" y="-518.3" font-family="Times New Roman,serif" font-size="14.00">OrderedCollections</text>
</g>
<!-- Revise&#45;&gt;OrderedCollections -->
<g id="edge69" class="edge">
<title>Revise&#45;&gt;OrderedCollections</title>
<path fill="none" stroke="black" d="M1178.98,-587.72C1237.47,-578.34 1363.07,-558.06 1468.94,-540 1476.89,-538.64 1485.21,-537.2 1493.47,-535.76"/>
<polygon fill="black" stroke="black" points="1494.26,-539.17 1503.51,-534 1493.05,-532.28 1494.26,-539.17"/>
</g>
<!-- UUIDs&#45;&gt;SHA -->
<g id="edge29" class="edge">
<title>UUIDs&#45;&gt;SHA</title>
<path fill="none" stroke="black" d="M1104.37,-291.4C1087.57,-280.77 1063.69,-265.57 1042.94,-252 1006.17,-227.96 964.08,-199.66 937.28,-181.54"/>
<polygon fill="black" stroke="black" points="939.04,-178.51 928.8,-175.8 935.12,-184.31 939.04,-178.51"/>
</g>
<!-- UUIDs&#45;&gt;Random -->
<g id="edge71" class="edge">
<title>UUIDs&#45;&gt;Random</title>
<path fill="none" stroke="black" d="M1144.18,-290.15C1156.11,-280.45 1171.88,-267.61 1185.21,-256.76"/>
<polygon fill="black" stroke="black" points="1187.59,-259.33 1193.14,-250.31 1183.17,-253.91 1187.59,-259.33"/>
</g>
<!-- JuliaInterpreter&#45;&gt;InteractiveUtils -->
<g id="edge34" class="edge">
<title>JuliaInterpreter&#45;&gt;InteractiveUtils</title>
<path fill="none" stroke="black" d="M1318.27,-431.89C1326.12,-413.16 1335,-382.77 1322.94,-360 1315.4,-345.76 1302.13,-334.63 1288.64,-326.33"/>
<polygon fill="black" stroke="black" points="1290.23,-323.21 1279.81,-321.28 1286.75,-329.28 1290.23,-323.21"/>
</g>
<!-- JuliaInterpreter&#45;&gt;Random -->
<g id="edge74" class="edge">
<title>JuliaInterpreter&#45;&gt;Random</title>
<path fill="none" stroke="black" d="M1368.26,-442.49C1397.94,-435.89 1431.56,-422.62 1449.94,-396 1459.04,-382.83 1455.86,-374.87 1449.94,-360 1420.2,-285.18 1322.46,-254.43 1261.87,-242.34"/>
<polygon fill="black" stroke="black" points="1262.23,-238.84 1251.75,-240.42 1260.93,-245.72 1262.23,-238.84"/>
</g>
<!-- JuliaInterpreter&#45;&gt;UUIDs -->
<g id="edge56" class="edge">
<title>JuliaInterpreter&#45;&gt;UUIDs</title>
<path fill="none" stroke="black" d="M1310.9,-431.94C1311.05,-412.11 1308.17,-379.6 1289.94,-360 1252.32,-319.53 1223.26,-341.77 1170.94,-324 1168.52,-323.18 1166.04,-322.31 1163.54,-321.42"/>
<polygon fill="black" stroke="black" points="1164.52,-318.05 1153.92,-317.9 1162.12,-324.62 1164.52,-318.05"/>
</g>
<!-- JuliaInterpreter&#45;&gt;CodeTracking -->
<g id="edge73" class="edge">
<title>JuliaInterpreter&#45;&gt;CodeTracking</title>
<path fill="none" stroke="black" d="M1288.61,-432.76C1276.3,-423.4 1260.65,-411.49 1247.2,-401.26"/>
<polygon fill="black" stroke="black" points="1249.24,-398.42 1239.17,-395.15 1245.01,-403.99 1249.24,-398.42"/>
</g>
<!-- Dates&#45;&gt;Printf -->
<g id="edge75" class="edge">
<title>Dates&#45;&gt;Printf</title>
<path fill="none" stroke="black" d="M546.76,-288.41C550.67,-280.13 555.48,-269.92 559.85,-260.66"/>
<polygon fill="black" stroke="black" points="563.08,-262.01 564.18,-251.47 556.75,-259.02 563.08,-262.01"/>
</g>
<!-- Zlib_jll&#45;&gt;Libdl -->
<g id="edge40" class="edge">
<title>Zlib_jll&#45;&gt;Libdl</title>
<path fill="none" stroke="black" d="M455.23,-75.67C437.19,-64.59 411.38,-48.74 391.64,-36.62"/>
<polygon fill="black" stroke="black" points="393.4,-33.59 383.05,-31.34 389.74,-39.56 393.4,-33.59"/>
</g>
<!-- LoweredCodeUtils&#45;&gt;JuliaInterpreter -->
<g id="edge54" class="edge">
<title>LoweredCodeUtils&#45;&gt;JuliaInterpreter</title>
<path fill="none" stroke="black" d="M1309.94,-503.7C1309.94,-495.98 1309.94,-486.71 1309.94,-478.11"/>
<polygon fill="black" stroke="black" points="1313.44,-478.1 1309.94,-468.1 1306.44,-478.1 1313.44,-478.1"/>
</g>
<!-- Requires&#45;&gt;UUIDs -->
<g id="edge43" class="edge">
<title>Requires&#45;&gt;UUIDs</title>
<path fill="none" stroke="black" d="M1064.25,-432.15C1076.35,-407.6 1098.94,-361.77 1113.17,-332.91"/>
<polygon fill="black" stroke="black" points="1116.37,-334.34 1117.65,-323.82 1110.09,-331.25 1116.37,-334.34"/>
</g>
<!-- CodeTracking&#45;&gt;InteractiveUtils -->
<g id="edge57" class="edge">
<title>CodeTracking&#45;&gt;InteractiveUtils</title>
<path fill="none" stroke="black" d="M1224.48,-360.05C1227.52,-352.18 1231.21,-342.62 1234.61,-333.79"/>
<polygon fill="black" stroke="black" points="1237.95,-334.86 1238.28,-324.28 1231.42,-332.35 1237.95,-334.86"/>
</g>
<!-- CodeTracking&#45;&gt;UUIDs -->
<g id="edge53" class="edge">
<title>CodeTracking&#45;&gt;UUIDs</title>
<path fill="none" stroke="black" d="M1196.61,-360.76C1183.68,-350.93 1167.07,-338.29 1153.2,-327.74"/>
<polygon fill="black" stroke="black" points="1155.06,-324.75 1144.98,-321.48 1150.82,-330.32 1155.06,-324.75"/>
</g>
</g>
</svg>
